<?xml version="1.0" encoding="utf-8"?>
<!-- Generator: Adobe Illustrator 19.0.0, SVG Export Plug-In . SVG Version: 6.00 Build 0)  -->
<svg version="1.1" id="Layer_1" xmlns="http://www.w3.org/2000/svg" xmlns:xlink="http://www.w3.org/1999/xlink" x="0px" y="0px"
	 viewBox="-383 185 192 192" style="enable-background:new -383 185 192 192;" xml:space="preserve">
<style type="text/css">
	.st0{fill:#C2C2C2;}
</style>
<path class="st0" d="M-191,281c0-53-43-96-96-96s-96,43-96,96s43,96,96,96h96v-16h-43C-207.2,343.2-191,313.2-191,281z M-240,345.7
	c-10.7,7.8-25.7,5.4-33.5-5.3c-7.8-10.7-5.4-25.7,5.3-33.5c10.7-7.8,25.7-5.4,33.5,5.3C-226.9,322.9-229.3,337.9-240,345.7z
	 M-241.2,240.9c12.6-4.1,26.1,2.8,30.2,15.4c4.1,12.6-2.8,26.1-15.4,30.2c-12.6,4.1-26.1-2.8-30.2-15.4
	C-260.7,258.5-253.8,245-241.2,240.9z M-287,201c13.3,0,24,10.7,24,24s-10.7,24-24,24s-24-10.7-24-24S-300.3,201-287,201z
	 M-363.1,256.3c4.1-12.6,17.6-19.5,30.2-15.4c12.6,4.1,19.5,17.6,15.4,30.2c-4.1,12.6-17.6,19.5-30.2,15.4S-367.2,268.9-363.1,256.3
	z M-300.5,340.4c-7.8,10.7-22.8,13.1-33.5,5.3c-10.7-7.8-13.1-22.8-5.3-33.5c7.8-10.7,22.8-13.1,33.5-5.3
	C-295.1,314.7-292.7,329.7-300.5,340.4z M-295,281c0-4.4,3.6-8,8-8s8,3.6,8,8s-3.6,8-8,8S-295,285.4-295,281z"/>
</svg>
