<?xml version="1.0" encoding="utf-8"?>
<!-- Generator: Adobe Illustrator 19.0.0, SVG Export Plug-In . SVG Version: 6.00 Build 0)  -->
<svg version="1.1" id="Capa_1" xmlns="http://www.w3.org/2000/svg" xmlns:xlink="http://www.w3.org/1999/xlink" x="0px" y="0px"
	 viewBox="-455 267.6 48.3 37.4" style="enable-background:new -455 267.6 48.3 37.4;" xml:space="preserve">
<style type="text/css">
	.st0{fill:#ECF0F1;}
	.st1{fill:#2C2F38;}
	.st2{fill:#D1D4D1;}
</style>
<g>
	<path class="st0" d="M-436.4,305h-16.2c-1.3,0-2.4-1.1-2.4-2.4v-16.2c0-1.3,1.1-2.4,2.4-2.4h16.2c1.3,0,2.4,1.1,2.4,2.4v16.2
		C-434,303.9-435.1,305-436.4,305z"/>
	<circle class="st1" cx="-450" cy="289" r="2"/>
	<circle class="st1" cx="-439" cy="289" r="2"/>
	<circle class="st1" cx="-450" cy="300" r="2"/>
	<circle class="st1" cx="-439" cy="300" r="2"/>
	<path class="st2" d="M-408.3,287.6l-15.3,5.3c-1.3,0.4-2.6-0.2-3.1-1.5l-5.3-15.3c-0.4-1.3,0.2-2.6,1.5-3.1l15.3-5.3
		c1.3-0.4,2.6,0.2,3.1,1.5l5.3,15.3C-406.4,285.8-407,287.2-408.3,287.6z"/>
	<circle class="st1" cx="-426.4" cy="277" r="2"/>
	<circle class="st1" cx="-416" cy="273.4" r="2"/>
	<circle class="st1" cx="-422.8" cy="287.4" r="2"/>
	<circle class="st1" cx="-444.5" cy="294.8" r="2"/>
	<circle class="st1" cx="-412.4" cy="283.8" r="2"/>
</g>
</svg>
