<svg xmlns="http://www.w3.org/2000/svg" width="13.538" height="13.518" viewBox="0 0 13.538 13.518">
  <g id="filter-tool-black-shape" transform="translate(0 -0.291)">
    <path id="Path_2" data-name="Path 2" d="M13.48.665a.575.575,0,0,0-.567-.374H.624A.574.574,0,0,0,.058.665a.554.554,0,0,0,.134.672L4.926,6.071v4.666a.591.591,0,0,0,.182.432l2.458,2.458A.571.571,0,0,0,8,13.809a.668.668,0,0,0,.24-.048.574.574,0,0,0,.375-.566V6.071l4.733-4.733A.554.554,0,0,0,13.48.665Z" transform="translate(0)" fill="#293441"/>
  </g>
</svg>
